<svg xmlns="http://www.w3.org/2000/svg" xmlns:xlink="http://www.w3.org/1999/xlink" width="20" height="18" viewBox="0 0 20 18" fill="none"><path     fill="#FFFFFF" fill-opacity="0" d="M0 18L20 18L20 0L0 0L0 18Z"></path><path d="M7.60871 11.1229C6.41387 11.7614 6.23686 10.7645 6.23686 10.7645L4.74002 7.41547C4.16387 5.82405 5.23843 6.69758 5.23843 6.69758C5.23843 6.69758 6.16019 7.36623 6.86029 7.77388C7.55934 8.18152 8.35714 7.89352 8.35714 7.89352L18.1438 3.56294C16.3382 1.40823 13.3561 0 9.97898 0C4.46744 0 0 3.74823 0 8.37265C0 11.0324 1.47899 13.3994 3.78308 14.9336L3.36816 17.2239C3.36816 17.2239 3.16544 17.8926 3.86712 17.5823C4.34558 17.3705 5.56513 16.6135 6.29096 16.1523C7.43225 16.5335 8.67541 16.7453 9.97898 16.7453C15.49 16.7453 19.958 12.997 19.958 8.37265C19.958 7.03323 19.5815 5.76794 18.9144 4.64558C15.7962 6.444 8.54307 10.6242 7.60871 11.1229Z"   fill="#07C160" ></path></svg>