<svg xmlns="http://www.w3.org/2000/svg" xmlns:xlink="http://www.w3.org/1999/xlink" width="16" height="16" viewBox="0 0 16 16" fill="none"><path d="M3.60006 9.00838C3.4112 9.16037 3.20877 9.38228 3.14998 9.66438C3.06998 10.0498 3.13328 10.5322 3.50511 10.9106C3.95555 11.3694 4.64006 11.495 4.93573 11.5166C5.73886 11.5746 6.59486 11.1764 7.24006 10.7221C7.49294 10.5437 7.92598 10.1854 8.33991 9.63273C7.41225 9.15378 6.25433 8.62403 5.01642 8.67586C4.38408 8.7023 3.9312 8.83342 3.60006 9.00838ZM15.3635 11.1263C15.7728 10.1652 16 9.10888 16 8C16 3.58888 12.4115 0 8 0C3.58852 0 0 3.58888 0 8C0 12.4115 3.58852 16 8 16C10.6623 16 13.0233 14.6918 14.4786 12.6856C13.1037 12.0021 10.8376 10.8772 9.44173 10.1965C8.77564 10.9558 7.79095 11.7169 6.67861 12.048C5.97983 12.2557 5.34991 12.335 4.69112 12.2003C4.03895 12.0668 3.55861 11.7614 3.27861 11.4553C3.136 11.2991 2.97217 11.1005 2.85356 10.8644C2.85945 10.8804 2.86572 10.8963 2.87234 10.912C2.87234 10.912 2.80417 10.7944 2.752 10.6073C2.73823 10.5611 2.727 10.5144 2.71828 10.467C2.70956 10.4196 2.70341 10.3719 2.69981 10.3238C2.69402 10.256 2.69298 10.188 2.69669 10.12C2.69078 9.99966 2.69566 9.87339 2.72278 9.744C2.78817 9.42783 2.92313 9.05947 3.27234 8.71756C4.03895 7.96695 5.06573 7.92661 5.59756 7.92975C6.38539 7.93427 7.75444 8.27897 8.90713 8.68661C9.22644 8.00661 9.4313 7.2793 9.56348 6.79442L4.77044 6.79442L4.77044 6.27617L7.23166 6.27617L7.23166 5.23966L4.25217 5.23966L4.25217 4.72139L7.23166 4.72139L7.23166 3.68522C7.23166 3.54295 7.25983 3.42609 7.49078 3.42609L8.6567 3.42609L8.6567 4.72139L11.8957 4.72139L11.8957 5.23966L8.6567 5.23966L8.6567 6.27617L11.2476 6.27617C11.2476 6.27617 10.9875 7.72661 10.1739 9.15617C11.9795 9.80105 14.5197 10.7944 15.3635 11.1263Z"   fill="#1677FF" ></path></svg>